<svg xmlns:xlink="http://www.w3.org/1999/xlink" width="162" xmlns="http://www.w3.org/2000/svg" height="162" id="screenshot-40656782-35d9-80cb-8002-9f9f015fbbc4" viewBox="0 0 162 162" style="-webkit-print-color-adjust: exact;" fill="none" version="1.1"><g id="shape-40656782-35d9-80cb-8002-9f9f015fbbc4"><defs><clipPath class="frame-clip-def frame-clip" id="frame-clip-40656782-35d9-80cb-8002-9f9f015fbbc4-rumext-id-1"><rect rx="0" ry="0" x="0" y="0" width="162" height="162" transform="matrix(1.000000, 0.000000, 0.000000, 1.000000, 0.000000, 0.000000)"/></clipPath></defs><g clip-path="url(#frame-clip-40656782-35d9-80cb-8002-9f9f015fbbc4-rumext-id-1)"><clipPath class="frame-clip-def frame-clip" id="frame-clip-40656782-35d9-80cb-8002-9f9f015fbbc4-rumext-id-1"><rect rx="0" ry="0" x="0" y="0" width="162" height="162" transform="matrix(1.000000, 0.000000, 0.000000, 1.000000, 0.000000, 0.000000)"/></clipPath><g class="fills" id="fills-40656782-35d9-80cb-8002-9f9f015fbbc4"><rect rx="0" ry="0" x="0" y="0" transform="matrix(1.000000, 0.000000, 0.000000, 1.000000, 0.000000, 0.000000)" width="162" height="162" class="frame-background"/></g><g class="frame-children"><g id="shape-40656782-35d9-80cb-8002-9ff9175fc668" rx="0" ry="0"><g id="shape-40656782-35d9-80cb-8002-9ff5b3ae8c31"><g class="fills" id="fills-40656782-35d9-80cb-8002-9ff5b3ae8c31"><path fill-rule="evenodd" rx="0" ry="0" d="M153.261,117.839L118.056,81.038L153.876,44.237L103.222,44.237L70.589,81.038L103.222,117.839L153.261,117.839Z" style="fill: rgb(160, 119, 243); fill-opacity: 1;"/></g></g><g id="shape-40656782-35d9-80cb-8002-9ff5b3ae8c2e"><g class="fills" id="fills-40656782-35d9-80cb-8002-9ff5b3ae8c2e"><rect rx="0" ry="0" x="38.706261246481546" y="-36.706261246481446" transform="matrix(0.000000, 1.000000, -1.000000, 0.000000, 87.774359, -38.706261)" width="49.068097662075616" height="122.48062015503876" style="fill: rgb(160, 119, 243); fill-opacity: 1;"/></g></g><g id="shape-40656782-35d9-80cb-8002-9ff5b3ae8c2c"><g class="fills" id="fills-40656782-35d9-80cb-8002-9ff5b3ae8c2c"><rect rx="0" ry="0" x="38.70626124648152" y="76.22564109144281" transform="matrix(0.000000, 1.000000, -1.000000, -0.000000, 200.706261, 74.225641)" width="49.06809766207567" height="122.48062015503871" style="fill: rgb(160, 119, 243); fill-opacity: 1;"/></g></g><g id="shape-40656782-35d9-80cb-8002-9ff5b3ae8c2d"><g class="fills" id="fills-40656782-35d9-80cb-8002-9ff5b3ae8c2d"><rect rx="0" ry="0" x="1.9999999999999716" y="0" transform="matrix(1.000000, 0.000000, 0.000000, 1.000000, 0.000000, 0.000000)" width="48.992248062015506" height="161.92472228484974" style="fill: rgb(112, 44, 249); fill-opacity: 1;"/></g></g><g id="shape-40656782-35d9-80cb-8002-9ff5b3ae8c30"><g class="fills" id="fills-40656782-35d9-80cb-8002-9ff5b3ae8c30"><path fill-rule="evenodd" rx="0" ry="0" d="M98.760,49.143L108.859,36.801L74.264,0.000L124.918,0.000L160.000,38.103L148.977,49.143L98.760,49.143Z" style="fill: rgb(112, 44, 249); fill-opacity: 1;"/></g></g><g id="shape-40656782-35d9-80cb-8002-9ff86decf69c"><g class="fills" id="fills-40656782-35d9-80cb-8002-9ff86decf69c"><path fill-rule="evenodd" rx="0" ry="0" d="M98.760,112.932L108.859,125.255L74.264,162.000L124.918,162.000L160.000,123.955L148.977,112.932L98.760,112.932Z" style="fill: rgb(112, 44, 249); fill-opacity: 1;"/></g></g></g></g></g></g></svg>