<svg xmlns:xlink="http://www.w3.org/1999/xlink" width="162" xmlns="http://www.w3.org/2000/svg" height="162" id="screenshot-40656782-35d9-80cb-8002-9f9f015fbbc4" viewBox="0 0 162 162" style="-webkit-print-color-adjust: exact;" fill="none" version="1.1"><g id="shape-40656782-35d9-80cb-8002-9f9f015fbbc4"><defs><clipPath class="frame-clip-def frame-clip" id="frame-clip-40656782-35d9-80cb-8002-9f9f015fbbc4-rumext-id-1"><rect rx="0" ry="0" x="0" y="0" width="162" height="162" transform="matrix(1.000000, 0.000000, 0.000000, 1.000000, 0.000000, 0.000000)"/></clipPath></defs><g clip-path="url(#frame-clip-40656782-35d9-80cb-8002-9f9f015fbbc4-rumext-id-1)"><clipPath class="frame-clip-def frame-clip" id="frame-clip-40656782-35d9-80cb-8002-9f9f015fbbc4-rumext-id-1"><rect rx="0" ry="0" x="0" y="0" width="162" height="162" transform="matrix(1.000000, 0.000000, 0.000000, 1.000000, 0.000000, 0.000000)"/></clipPath><g class="fills" id="fills-40656782-35d9-80cb-8002-9f9f015fbbc4"><rect rx="0" ry="0" x="0" y="0" transform="matrix(1.000000, 0.000000, 0.000000, 1.000000, 0.000000, 0.000000)" width="162" height="162" class="frame-background"/></g><g class="frame-children"><g id="shape-40656782-35d9-80cb-8002-9f9f149cf092" rx="0" ry="0"><g id="shape-40656782-35d9-80cb-8002-9f9e311521ba"><g class="fills" id="fills-40656782-35d9-80cb-8002-9f9e311521ba"><path rx="0" ry="0" d="M53.500,38.000L30.500,80.000L54.500,129.000L122.500,119.000L140.500,78.000L99.500,28.000L53.500,38.000Z" style="fill: rgb(255, 255, 255); fill-opacity: 0;"/></g></g><g id="shape-40656782-35d9-80cb-8002-9f9cb02ff96e" width="161" height="132" rx="0" ry="0" style="fill: rgb(0, 0, 0);"><g id="shape-40656782-35d9-80cb-8002-9f9cb030c528" rx="0" ry="0" style="fill: rgb(0, 0, 0);"><g id="shape-40656782-35d9-80cb-8002-9f9cb031b02e"><g class="fills" id="fills-40656782-35d9-80cb-8002-9f9cb031b02e"><path fill-rule="evenodd" rx="0" ry="0" d="M161.100,80.900L143.700,110.200L119.300,80.500L143.700,51.600Z" style="fill: rgb(112, 44, 249); fill-opacity: 1;"/></g></g><g id="shape-40656782-35d9-80cb-8002-9f9cb031f31b"><g class="fills" id="fills-40656782-35d9-80cb-8002-9f9cb031f31b"><path fill-rule="evenodd" rx="0" ry="0" d="M141.800,115.200L115.300,83.500L99.400,110.100L124.100,146.200Z" style="fill: rgb(112, 44, 249); fill-opacity: 1;"/></g></g><g id="shape-40656782-35d9-80cb-8002-9f9cb032273f"><g class="fills" id="fills-40656782-35d9-80cb-8002-9f9cb032273f"><path fill-rule="evenodd" rx="0" ry="0" d="M141.500,46.400L115.300,78.200L99.400,51.600L124.100,15.900Z" style="fill: rgb(112, 44, 249); fill-opacity: 1;"/></g></g><g id="shape-40656782-35d9-80cb-8002-9f9cb03278a2"><defs><linearGradient x1="0" y1="66" y2="66" id="rumext-id-9-a"><stop stop-color="#2A3B8F" offset="0%"/><stop stop-color="#29ABE2" offset="100%"/></linearGradient></defs><g class="fills" id="fills-40656782-35d9-80cb-8002-9f9cb03278a2"><path rx="0" ry="0" d="M61.600,46.400L141.500,46.400L123.900,15.900L79.200,15.900Z" style="opacity: 0.6; fill: rgb(112, 44, 249); fill-opacity: 1;"/></g></g><g id="shape-40656782-35d9-80cb-8002-9f9cb0328bc2"><defs><linearGradient x1="0" y1="66" y2="66" id="rumext-id-10-b"><stop stop-color="#2A3B8F" offset="0%"/><stop stop-color="#29ABE2" offset="100%"/></linearGradient></defs><g class="fills" id="fills-40656782-35d9-80cb-8002-9f9cb0328bc2"><path rx="0" ry="0" d="M115.300,78.300L159.500,78.300L143.600,51.500L99.300,51.500" style="opacity: 0.6; fill: rgb(112, 44, 249); fill-opacity: 1;"/></g></g><g id="shape-40656782-35d9-80cb-8002-9f9cb032f545"><defs><linearGradient x1="161" y1="66" x2="0" y2="66" id="rumext-id-11-c"><stop stop-color="#B4D44E" offset="0%"/><stop stop-color="#E7F716" offset="100%"/></linearGradient></defs><g class="fills" id="fills-40656782-35d9-80cb-8002-9f9cb032f545"><path fill="url(#rumext-id-11-c)" fill-rule="evenodd" rx="0" ry="0" d="M141.800,115.300L61.500,115.300L79.100,145.800L124.100,145.800Z" style="opacity: 0.6; fill: rgb(112, 44, 249); fill-opacity: 1;"/></g></g><g id="shape-40656782-35d9-80cb-8002-9f9cb0331bb3"><g class="fills" id="fills-40656782-35d9-80cb-8002-9f9cb0331bb3"><path fill-rule="evenodd" rx="0" ry="0" d="M79.100,145.800L41.500,80.800L79.600,15.800L38.400,15.800L0.900,80.800L38.400,145.800Z" style="fill: rgb(112, 44, 249); fill-opacity: 1;"/></g></g><g id="shape-40656782-35d9-80cb-8002-9f9cb0331bb4"><defs><linearGradient x1="161" y1="66" x2="0" y2="66" id="rumext-id-13-d"><stop stop-color="#B4D44E" offset="0%"/><stop stop-color="#E7F716" offset="100%"/></linearGradient></defs><g class="fills" id="fills-40656782-35d9-80cb-8002-9f9cb0331bb4"><path rx="0" ry="0" d="M115.300,83.400L159.500,83.400L143.600,110.200L99.300,110.200" style="opacity: 0.6; fill: rgb(112, 44, 249); fill-opacity: 1;"/></g></g></g></g></g></g></g></g></svg>